<mxfile host="app.diagrams.net" modified="2020-12-14T03:30:47.393Z" agent="5.0 (Windows NT 10.0; Win64; x64) AppleWebKit/537.36 (KHTML, like Gecko) Chrome/86.0.4240.198 Safari/537.36" etag="GsWnid-t6eICQH48rwn_" version="14.0.1" type="github">
  <diagram name="Page-1" id="7a6c530e-6e37-e111-ec74-82921da8cc10">
    <mxGraphModel dx="1483" dy="769" grid="1" gridSize="10" guides="1" tooltips="1" connect="1" arrows="1" fold="1" page="1" pageScale="1.5" pageWidth="1169" pageHeight="826" background="#184380" math="0" shadow="0">
      <root>
        <mxCell id="0" style=";html=1;" />
        <mxCell id="1" style=";html=1;" parent="0" />
        <mxCell id="23046e2b9bb16c14-64" value="USB KEY" style="rounded=1;whiteSpace=wrap;html=1;shadow=0;strokeWidth=2;fillColor=#0072BC;fontSize=24;fontColor=#FFFFFF;align=center;strokeColor=none;arcSize=3;verticalAlign=top;" parent="1" vertex="1">
          <mxGeometry x="1286" y="291" width="150" height="420" as="geometry" />
        </mxCell>
        <mxCell id="23046e2b9bb16c14-27" value="AUTH Service" style="rounded=1;whiteSpace=wrap;html=1;shadow=0;strokeWidth=2;fillColor=#8BC63E;fontSize=24;fontColor=#000000;align=center;strokeColor=none;arcSize=3;verticalAlign=top;" parent="1" vertex="1">
          <mxGeometry x="718" y="293" width="530" height="420" as="geometry" />
        </mxCell>
        <mxCell id="23046e2b9bb16c14-2" value="HASP LIB" style="rounded=1;whiteSpace=wrap;html=1;shadow=0;strokeWidth=2;fillColor=none;fontSize=20;fontColor=#000000;align=center;strokeColor=#FFFFFF;arcSize=10;verticalAlign=top;" parent="1" vertex="1">
          <mxGeometry x="1020" y="370" width="180" height="231" as="geometry" />
        </mxCell>
        <mxCell id="U88RP4GUEzCZJ0dClJZG-20" value="HTTP/HTTPS" style="edgeStyle=none;rounded=0;orthogonalLoop=1;jettySize=auto;html=1;startArrow=open;startFill=0;endArrow=open;endFill=0;strokeWidth=5;fontSize=20;labelBackgroundColor=#ffffff;labelBorderColor=#000000;strokeColor=#FFFFFF;" edge="1" parent="1" source="23046e2b9bb16c14-28" target="U88RP4GUEzCZJ0dClJZG-19">
          <mxGeometry relative="1" as="geometry" />
        </mxCell>
        <mxCell id="23046e2b9bb16c14-28" value="WEB" style="rounded=1;whiteSpace=wrap;html=1;shadow=0;strokeWidth=2;fillColor=#F04D22;fontSize=24;fontColor=#FFFFFF;align=center;strokeColor=none;arcSize=6;verticalAlign=top;" parent="1" vertex="1">
          <mxGeometry x="263.5" y="331" width="163" height="330" as="geometry" />
        </mxCell>
        <mxCell id="24964f25f45c63f1-5" value="WAMP" style="shadow=0;dashed=0;html=1;strokeColor=none;shape=mxgraph.mscae.enterprise.gateway;fillColor=#FFFFFF;rounded=0;fontSize=20;fontColor=#FFFFFF;align=center;labelPosition=center;verticalLabelPosition=top;verticalAlign=bottom;" parent="1" vertex="1">
          <mxGeometry x="744" y="478" width="50" height="50" as="geometry" />
        </mxCell>
        <mxCell id="23046e2b9bb16c14-71" value="rRPC" style="edgeStyle=orthogonalEdgeStyle;html=1;startArrow=open;startFill=0;startSize=10;endArrow=open;endFill=0;endSize=10;strokeWidth=5;fontSize=20;strokeColor=#FFFFFF;rounded=0;" parent="1" source="24964f25f45c63f1-4" target="24964f25f45c63f1-5" edge="1">
          <mxGeometry relative="1" as="geometry">
            <Array as="points">
              <mxPoint x="730" y="501" />
              <mxPoint x="730" y="503" />
            </Array>
          </mxGeometry>
        </mxCell>
        <mxCell id="24964f25f45c63f1-4" value="WAMP" style="shadow=0;dashed=0;html=1;strokeColor=none;shape=mxgraph.mscae.enterprise.gateway;fillColor=#FFFFFF;rounded=0;fontSize=20;fontColor=#FFFFFF;align=center;labelPosition=center;verticalLabelPosition=top;verticalAlign=bottom;" parent="1" vertex="1">
          <mxGeometry x="320" y="476" width="50" height="50" as="geometry" />
        </mxCell>
        <mxCell id="23046e2b9bb16c14-74" value="read KEY Data" style="html=1;startArrow=none;startFill=0;startSize=10;endArrow=open;endFill=0;endSize=10;strokeWidth=3;fontSize=20;strokeColor=#FFFFFF;rounded=0;elbow=vertical;entryX=1;entryY=0.5;entryDx=0;entryDy=0;entryPerimeter=0;" parent="1" target="U88RP4GUEzCZJ0dClJZG-8" edge="1">
          <mxGeometry relative="1" as="geometry">
            <mxPoint x="1280" y="522" as="sourcePoint" />
            <mxPoint x="1024" y="522" as="targetPoint" />
          </mxGeometry>
        </mxCell>
        <mxCell id="23046e2b9bb16c14-81" value="A" style="text;html=1;strokeColor=none;fillColor=none;align=center;verticalAlign=middle;whiteSpace=wrap;rounded=1;shadow=0;fontSize=11;fontColor=#FFFFFF;fontStyle=1" parent="1" vertex="1">
          <mxGeometry x="393" y="631" width="20" height="20" as="geometry" />
        </mxCell>
        <mxCell id="23046e2b9bb16c14-82" value="B" style="text;html=1;strokeColor=none;fillColor=none;align=center;verticalAlign=middle;whiteSpace=wrap;rounded=1;shadow=0;fontSize=11;fontColor=#FFFFFF;fontStyle=1" parent="1" vertex="1">
          <mxGeometry x="1197" y="615" width="20" height="20" as="geometry" />
        </mxCell>
        <mxCell id="23046e2b9bb16c14-113" value="加解密架构设计" style="text;strokeColor=none;fillColor=none;html=1;fontSize=24;fontStyle=1;verticalAlign=middle;align=center;rounded=0;shadow=0;fontColor=#FFFFFF;" parent="1" vertex="1">
          <mxGeometry x="120" y="40" width="1510" height="40" as="geometry" />
        </mxCell>
        <mxCell id="23046e2b9bb16c14-114" value="Subtitle" style="text;html=1;strokeColor=none;fillColor=none;align=center;verticalAlign=middle;whiteSpace=wrap;rounded=0;shadow=0;fontSize=10;fontColor=#009BFF;" parent="1" vertex="1">
          <mxGeometry x="114" y="90" width="1526" height="20" as="geometry" />
        </mxCell>
        <mxCell id="U88RP4GUEzCZJ0dClJZG-3" value="" style="shape=image;html=1;verticalAlign=top;verticalLabelPosition=bottom;labelBackgroundColor=#ffffff;imageAspect=0;aspect=fixed;image=https://cdn2.iconfinder.com/data/icons/computers-and-hardware-1/32/Computers_and_Hardware_usb_key_storage_data-128.png" vertex="1" parent="1">
          <mxGeometry x="1297" y="423" width="128" height="128" as="geometry" />
        </mxCell>
        <mxCell id="U88RP4GUEzCZJ0dClJZG-5" value="&amp;nbsp;read KEY Data" style="html=1;startArrow=none;startFill=0;startSize=10;endArrow=open;endFill=0;endSize=10;strokeWidth=3;fontSize=20;strokeColor=#FFFFFF;rounded=0;elbow=vertical;entryX=1;entryY=0.5;entryDx=0;entryDy=0;entryPerimeter=0;fontStyle=0;" edge="1" parent="1" target="U88RP4GUEzCZJ0dClJZG-7">
          <mxGeometry relative="1" as="geometry">
            <mxPoint x="1281" y="453.4" as="sourcePoint" />
            <mxPoint x="1014.0800000000004" y="453.00300000000004" as="targetPoint" />
          </mxGeometry>
        </mxCell>
        <mxCell id="U88RP4GUEzCZJ0dClJZG-7" value="" style="aspect=fixed;pointerEvents=1;shadow=0;dashed=0;html=1;strokeColor=none;labelPosition=center;verticalLabelPosition=bottom;verticalAlign=top;align=center;fillColor=#00188D;shape=mxgraph.mscae.enterprise.lock_unlocked;fontSize=20;fontColor=#000000;" vertex="1" parent="1">
          <mxGeometry x="900" y="440" width="37" height="50" as="geometry" />
        </mxCell>
        <mxCell id="U88RP4GUEzCZJ0dClJZG-8" value="" style="aspect=fixed;pointerEvents=1;shadow=0;dashed=0;html=1;strokeColor=none;labelPosition=center;verticalLabelPosition=bottom;verticalAlign=top;align=center;fillColor=#00188D;shape=mxgraph.mscae.enterprise.lock;fontSize=20;fontColor=#000000;" vertex="1" parent="1">
          <mxGeometry x="898" y="501" width="39" height="50" as="geometry" />
        </mxCell>
        <mxCell id="U88RP4GUEzCZJ0dClJZG-9" style="edgeStyle=none;rounded=0;orthogonalLoop=1;jettySize=auto;html=1;exitX=0;exitY=0.5;exitDx=0;exitDy=0;exitPerimeter=0;startArrow=open;startFill=0;endArrow=open;endFill=0;strokeWidth=5;fontSize=20;fontColor=#000000;" edge="1" parent="1" source="U88RP4GUEzCZJ0dClJZG-8" target="U88RP4GUEzCZJ0dClJZG-8">
          <mxGeometry relative="1" as="geometry" />
        </mxCell>
        <mxCell id="U88RP4GUEzCZJ0dClJZG-13" value="&#xa;&#xa;&lt;span style=&quot;color: rgb(0, 0, 0); font-family: helvetica; font-size: 25px; font-style: normal; font-weight: 400; letter-spacing: normal; text-align: center; text-indent: 0px; text-transform: none; word-spacing: 0px; display: inline; float: none;&quot;&gt;DES 算法加解密：从usb key 读取密钥，通过密钥进行加解密&lt;/span&gt;&#xa;&#xa;" style="shape=note;whiteSpace=wrap;html=1;backgroundOutline=1;darkOpacity=0.05;rounded=1;shadow=0;fontSize=25;verticalAlign=top;strokeColor=none;strokeWidth=2;fillColor=#8BC63E;arcSize=3;labelBackgroundColor=none;" vertex="1" parent="1">
          <mxGeometry x="716" y="110" width="520" height="150" as="geometry" />
        </mxCell>
        <mxCell id="U88RP4GUEzCZJ0dClJZG-15" style="html=1;startArrow=none;startFill=0;startSize=10;endArrow=none;endFill=0;endSize=10;strokeWidth=3;fontSize=11;fontColor=#FFFFFF;strokeColor=#FFFFFF;rounded=0;entryX=0;entryY=0.5;entryDx=0;entryDy=0;entryPerimeter=0;exitX=1;exitY=0.5;exitDx=0;exitDy=0;exitPerimeter=0;" edge="1" parent="1" source="24964f25f45c63f1-5" target="U88RP4GUEzCZJ0dClJZG-7">
          <mxGeometry relative="1" as="geometry">
            <mxPoint x="860" y="500" as="sourcePoint" />
            <mxPoint x="872" y="513" as="targetPoint" />
          </mxGeometry>
        </mxCell>
        <mxCell id="U88RP4GUEzCZJ0dClJZG-16" style="html=1;startArrow=none;startFill=0;startSize=10;endArrow=none;endFill=0;endSize=10;strokeWidth=3;fontSize=11;fontColor=#FFFFFF;strokeColor=#FFFFFF;rounded=0;entryX=0;entryY=0.5;entryDx=0;entryDy=0;entryPerimeter=0;exitX=1;exitY=0.5;exitDx=0;exitDy=0;exitPerimeter=0;" edge="1" parent="1" source="24964f25f45c63f1-5" target="U88RP4GUEzCZJ0dClJZG-8">
          <mxGeometry relative="1" as="geometry">
            <mxPoint x="860" y="510" as="sourcePoint" />
            <mxPoint x="981" y="458" as="targetPoint" />
          </mxGeometry>
        </mxCell>
        <mxCell id="U88RP4GUEzCZJ0dClJZG-18" value="DES DATA" style="rounded=1;whiteSpace=wrap;html=1;shadow=0;strokeWidth=2;fillColor=none;fontSize=20;fontColor=#000000;align=center;strokeColor=#FFFFFF;arcSize=10;verticalAlign=top;" vertex="1" parent="1">
          <mxGeometry x="820" y="371.5" width="180" height="231" as="geometry" />
        </mxCell>
        <mxCell id="U88RP4GUEzCZJ0dClJZG-19" value="REMOTE SERVER&lt;br&gt;MYSQL" style="rounded=1;whiteSpace=wrap;html=1;shadow=0;strokeWidth=2;fillColor=#F04D22;fontSize=24;fontColor=#FFFFFF;align=center;strokeColor=none;arcSize=6;verticalAlign=top;" vertex="1" parent="1">
          <mxGeometry x="185" y="120" width="320" height="110" as="geometry" />
        </mxCell>
      </root>
    </mxGraphModel>
  </diagram>
</mxfile>
